<svg version="1.1" xmlns="http://www.w3.org/2000/svg"
             viewBox="3.39308 7.5 33.2138 5">
  <path d="M 3.39308,10 L 3.62576,9.79487 4.12215,9.40983 4.64173,9.05672 5.18247,8.73693 5.74221,8.45173 6.31876,8.20223 6.90983,7.98943 7.5131,7.81417 8.12619,7.67713 8.74667,7.57885 9.3721,7.51973 10,7.5 10.6279,7.51973 11.2533,7.57885 11.8738,7.67713 12.4869,7.81417 13.0902,7.98944 13.6812,8.20224 14.2578,8.45173 14.8175,8.73693 15.3583,9.05672 15.8779,9.40983 16.3742,9.79487 16.6069,10 16.3742,10.2051 15.8779,10.5902 15.3583,10.9433 14.8175,11.2631 14.2578,11.5483 13.6812,11.7978 13.0902,12.0106 12.4869,12.1858 11.8738,12.3229 11.2533,12.4211 10.6279,12.4803 10,12.5 9.37209,12.4803 8.74667,12.4211 8.12619,12.3229 7.5131,12.1858 6.90983,12.0106 6.31875,11.7978 5.74221,11.5483 5.18246,11.2631 4.64173,10.9433 4.12215,10.5902 3.62576,10.2051 Z
           M 12,10 L 11.9842,9.74933 11.9372,9.50262 11.8596,9.26375 11.7526,9.03649 11.618,8.82443 11.4579,8.63091 11.2748,8.45897 11.0717,8.31134 10.8516,8.19035 10.618,8.09789 10.3748,8.03543 10.1256,8.00395 9.87442,8.00395 9.62524,8.03543 9.38197,8.09789 9.14844,8.19035 8.92835,8.31134 8.72515,8.45897 8.54206,8.63091 8.38197,8.82443 8.24739,9.03649 8.14045,9.26375 8.06283,9.50262 8.01577,9.74933 8,10 8.01577,10.2507 8.06283,10.4974 8.14045,10.7362 8.24739,10.9635 8.38197,11.1756 8.54206,11.3691 8.72515,11.541 8.92835,11.6887 9.14844,11.8097 9.38197,11.9021 9.62524,11.9646 9.87442,11.9961 10.1256,11.9961 10.3748,11.9646 10.618,11.9021 10.8516,11.8097 11.0717,11.6887 11.2748,11.541 11.4579,11.3691 11.618,11.1756 11.7526,10.9635 11.8596,10.7362 11.9372,10.4974 11.9842,10.2507 Z" />
  <path d="M 23.3931,10 L 23.6258,9.79487 24.1221,9.40983 24.6417,9.05672 25.1825,8.73693 25.7422,8.45173 26.3188,8.20223 26.9098,7.98943 27.5131,7.81417 28.1262,7.67713 28.7467,7.57885 29.3721,7.51973 30,7.5 30.6279,7.51973 31.2533,7.57885 31.8738,7.67713 32.4869,7.81417 33.0902,7.98944 33.6812,8.20224 34.2578,8.45173 34.8175,8.73693 35.3583,9.05672 35.8779,9.40983 36.3742,9.79487 36.6069,10 36.3742,10.2051 35.8779,10.5902 35.3583,10.9433 34.8175,11.2631 34.2578,11.5483 33.6812,11.7978 33.0902,12.0106 32.4869,12.1858 31.8738,12.3229 31.2533,12.4211 30.6279,12.4803 30,12.5 29.3721,12.4803 28.7467,12.4211 28.1262,12.3229 27.5131,12.1858 26.9098,12.0106 26.3188,11.7978 25.7422,11.5483 25.1825,11.2631 24.6417,10.9433 24.1221,10.5902 23.6258,10.2051 Z
           M 32,10 L 31.9842,9.74933 31.9372,9.50262 31.8596,9.26375 31.7526,9.03649 31.618,8.82443 31.4579,8.63091 31.2748,8.45897 31.0717,8.31134 30.8516,8.19035 30.618,8.09789 30.3748,8.03543 30.1256,8.00395 29.8744,8.00395 29.6252,8.03543 29.382,8.09789 29.1484,8.19035 28.9283,8.31134 28.7252,8.45897 28.5421,8.63091 28.382,8.82443 28.2474,9.03649 28.1404,9.26375 28.0628,9.50262 28.0158,9.74933 28,10 28.0158,10.2507 28.0628,10.4974 28.1404,10.7362 28.2474,10.9635 28.382,11.1756 28.5421,11.3691 28.7252,11.541 28.9283,11.6887 29.1484,11.8097 29.382,11.9021 29.6252,11.9646 29.8744,11.9961 30.1256,11.9961 30.3748,11.9646 30.618,11.9021 30.8516,11.8097 31.0717,11.6887 31.2748,11.541 31.4579,11.3691 31.618,11.1756 31.7526,10.9635 31.8596,10.7362 31.9372,10.4974 31.9842,10.2507 Z" />
</svg>
